<svg xmlns="http://www.w3.org/2000/svg" width="27.152" height="33.305" viewBox="0 0 27.152 33.305"><g transform="translate(-2.104)"><g transform="translate(2.104)"><path fill="#fff" d="M17.818,0h.237a7.132,7.132,0,0,1-1.8,5.375,5.567,5.567,0,0,1-4.9,2.3,6.918,6.918,0,0,1,1.828-5.208A7.9,7.9,0,0,1,17.818,0Z" transform="translate(2.167)"/><path fill="#fff" d="M29.256,21.907v.066a19.378,19.378,0,0,1-2.773,5.345c-1.057,1.455-2.353,3.413-4.667,3.413-2,0-3.327-1.286-5.376-1.321-2.167-.035-3.359,1.075-5.341,1.354h-.676a6.035,6.035,0,0,1-3.485-2.4A21.039,21.039,0,0,1,2.1,16.26V14.77A9.76,9.76,0,0,1,6.366,6.759,7.2,7.2,0,0,1,11.2,5.64a12.156,12.156,0,0,1,2.368.679,6.538,6.538,0,0,0,2.366.709,5.68,5.68,0,0,0,1.66-.507,10.213,10.213,0,0,1,5.341-.948,7.41,7.41,0,0,1,5.445,3.247,6.987,6.987,0,0,0-3.549,6.932A7.156,7.156,0,0,0,29.256,21.907Z" transform="translate(-2.104 2.54)"/></g></g></svg>