<svg width="510" height="88" viewBox="0 0 510 88" fill="none" xmlns="http://www.w3.org/2000/svg">
<path d="M2.00587 36.104C2.00587 32.776 2.72588 29.816 4.16588 27.224C5.60588 24.6 7.60588 22.568 10.1659 21.128C12.7579 19.656 15.6859 18.92 18.9499 18.92C22.9499 18.92 26.3739 19.976 29.2219 22.088C32.0699 24.2 33.9739 27.08 34.9339 30.728H25.9099C25.2379 29.32 24.2779 28.248 23.0299 27.512C21.8139 26.776 20.4219 26.408 18.8539 26.408C16.3259 26.408 14.2779 27.288 12.7099 29.048C11.1419 30.808 10.3579 33.16 10.3579 36.104C10.3579 39.048 11.1419 41.4 12.7099 43.16C14.2779 44.92 16.3259 45.8 18.8539 45.8C20.4219 45.8 21.8139 45.432 23.0299 44.696C24.2779 43.96 25.2379 42.888 25.9099 41.48H34.9339C33.9739 45.128 32.0699 48.008 29.2219 50.12C26.3739 52.2 22.9499 53.24 18.9499 53.24C15.6859 53.24 12.7579 52.52 10.1659 51.08C7.60588 49.608 5.60588 47.576 4.16588 44.984C2.72588 42.392 2.00587 39.432 2.00587 36.104ZM57.1444 53L50.1364 40.28H48.1684V53H39.9604V19.304H53.7364C56.3924 19.304 58.6484 19.768 60.5044 20.696C62.3924 21.624 63.8004 22.904 64.7284 24.536C65.6564 26.136 66.1204 27.928 66.1204 29.912C66.1204 32.152 65.4804 34.152 64.2004 35.912C62.9524 37.672 61.0964 38.92 58.6324 39.656L66.4084 53H57.1444ZM48.1684 34.472H53.2564C54.7604 34.472 55.8804 34.104 56.6164 33.368C57.3844 32.632 57.7684 31.592 57.7684 30.248C57.7684 28.968 57.3844 27.96 56.6164 27.224C55.8804 26.488 54.7604 26.12 53.2564 26.12H48.1684V34.472ZM79.4809 19.304V53H71.2729V19.304H79.4809ZM105.829 35.72C107.781 36.136 109.349 37.112 110.533 38.648C111.717 40.152 112.309 41.88 112.309 43.832C112.309 46.648 111.317 48.888 109.333 50.552C107.381 52.184 104.645 53 101.125 53H85.4291V19.304H100.597C104.021 19.304 106.693 20.088 108.613 21.656C110.565 23.224 111.541 25.352 111.541 28.04C111.541 30.024 111.013 31.672 109.957 32.984C108.933 34.296 107.557 35.208 105.829 35.72ZM93.6371 32.936H99.0131C100.357 32.936 101.381 32.648 102.085 32.072C102.821 31.464 103.189 30.584 103.189 29.432C103.189 28.28 102.821 27.4 102.085 26.792C101.381 26.184 100.357 25.88 99.0131 25.88H93.6371V32.936ZM99.6851 46.376C101.061 46.376 102.117 46.072 102.853 45.464C103.621 44.824 104.005 43.912 104.005 42.728C104.005 41.544 103.605 40.616 102.805 39.944C102.037 39.272 100.965 38.936 99.5891 38.936H93.6371V46.376H99.6851ZM129.262 53.336C126.798 53.336 124.59 52.936 122.638 52.136C120.686 51.336 119.118 50.152 117.934 48.584C116.782 47.016 116.174 45.128 116.11 42.92H124.846C124.974 44.168 125.406 45.128 126.142 45.8C126.878 46.44 127.838 46.76 129.022 46.76C130.238 46.76 131.198 46.488 131.902 45.944C132.606 45.368 132.958 44.584 132.958 43.592C132.958 42.76 132.67 42.072 132.094 41.528C131.55 40.984 130.862 40.536 130.03 40.184C129.23 39.832 128.078 39.432 126.574 38.984C124.398 38.312 122.622 37.64 121.246 36.968C119.87 36.296 118.686 35.304 117.694 33.992C116.702 32.68 116.206 30.968 116.206 28.856C116.206 25.72 117.342 23.272 119.614 21.512C121.886 19.72 124.846 18.824 128.494 18.824C132.206 18.824 135.198 19.72 137.47 21.512C139.742 23.272 140.958 25.736 141.118 28.904H132.238C132.174 27.816 131.774 26.968 131.038 26.36C130.302 25.72 129.358 25.4 128.206 25.4C127.214 25.4 126.414 25.672 125.806 26.216C125.198 26.728 124.894 27.48 124.894 28.472C124.894 29.56 125.406 30.408 126.43 31.016C127.454 31.624 129.054 32.28 131.23 32.984C133.406 33.72 135.166 34.424 136.51 35.096C137.886 35.768 139.07 36.744 140.062 38.024C141.054 39.304 141.55 40.952 141.55 42.968C141.55 44.888 141.054 46.632 140.062 48.2C139.102 49.768 137.694 51.016 135.838 51.944C133.982 52.872 131.79 53.336 129.262 53.336ZM178.709 19.304V25.88H164.981V32.984H175.253V39.368H164.981V53H156.773V19.304H178.709ZM198.959 53.336C195.791 53.336 192.879 52.6 190.223 51.128C187.599 49.656 185.503 47.608 183.935 44.984C182.399 42.328 181.631 39.352 181.631 36.056C181.631 32.76 182.399 29.8 183.935 27.176C185.503 24.552 187.599 22.504 190.223 21.032C192.879 19.56 195.791 18.824 198.959 18.824C202.127 18.824 205.023 19.56 207.647 21.032C210.303 22.504 212.383 24.552 213.887 27.176C215.423 29.8 216.191 32.76 216.191 36.056C216.191 39.352 215.423 42.328 213.887 44.984C212.351 47.608 210.271 49.656 207.647 51.128C205.023 52.6 202.127 53.336 198.959 53.336ZM198.959 45.848C201.647 45.848 203.791 44.952 205.391 43.16C207.023 41.368 207.839 39 207.839 36.056C207.839 33.08 207.023 30.712 205.391 28.952C203.791 27.16 201.647 26.264 198.959 26.264C196.239 26.264 194.063 27.144 192.431 28.904C190.831 30.664 190.031 33.048 190.031 36.056C190.031 39.032 190.831 41.416 192.431 43.208C194.063 44.968 196.239 45.848 198.959 45.848ZM237.941 53L230.933 40.28H228.965V53H220.757V19.304H234.533C237.189 19.304 239.445 19.768 241.301 20.696C243.189 21.624 244.597 22.904 245.525 24.536C246.453 26.136 246.917 27.928 246.917 29.912C246.917 32.152 246.277 34.152 244.997 35.912C243.749 37.672 241.893 38.92 239.429 39.656L247.205 53H237.941ZM228.965 34.472H234.053C235.557 34.472 236.677 34.104 237.413 33.368C238.181 32.632 238.565 31.592 238.565 30.248C238.565 28.968 238.181 27.96 237.413 27.224C236.677 26.488 235.557 26.12 234.053 26.12H228.965V34.472ZM270.45 25.88V32.696H281.442V39.032H270.45V46.424H282.882V53H262.242V19.304H282.882V25.88H270.45ZM319.842 19.304L307.89 53H297.618L285.666 19.304H294.402L302.754 44.744L311.154 19.304H319.842ZM331.481 25.88V32.696H342.473V39.032H331.481V46.424H343.913V53H323.273V19.304H343.913V25.88H331.481ZM366.426 53L359.418 40.28H357.45V53H349.242V19.304H363.018C365.674 19.304 367.93 19.768 369.786 20.696C371.674 21.624 373.082 22.904 374.01 24.536C374.938 26.136 375.402 27.928 375.402 29.912C375.402 32.152 374.762 34.152 373.482 35.912C372.234 37.672 370.378 38.92 367.914 39.656L375.69 53H366.426ZM357.45 34.472H362.538C364.042 34.472 365.162 34.104 365.898 33.368C366.666 32.632 367.05 31.592 367.05 30.248C367.05 28.968 366.666 27.96 365.898 27.224C365.162 26.488 364.042 26.12 362.538 26.12H357.45V34.472ZM409.45 19.304L397.786 41.864V53H389.578V41.864L377.914 19.304H387.226L393.754 33.416L400.234 19.304H409.45ZM428.693 53.336C425.525 53.336 422.613 52.6 419.957 51.128C417.333 49.656 415.237 47.608 413.669 44.984C412.133 42.328 411.365 39.352 411.365 36.056C411.365 32.76 412.133 29.8 413.669 27.176C415.237 24.552 417.333 22.504 419.957 21.032C422.613 19.56 425.525 18.824 428.693 18.824C431.861 18.824 434.757 19.56 437.381 21.032C440.037 22.504 442.117 24.552 443.621 27.176C445.157 29.8 445.925 32.76 445.925 36.056C445.925 39.352 445.157 42.328 443.621 44.984C442.085 47.608 440.005 49.656 437.381 51.128C434.757 52.6 431.861 53.336 428.693 53.336ZM428.693 45.848C431.381 45.848 433.525 44.952 435.125 43.16C436.757 41.368 437.573 39 437.573 36.056C437.573 33.08 436.757 30.712 435.125 28.952C433.525 27.16 431.381 26.264 428.693 26.264C425.973 26.264 423.797 27.144 422.165 28.904C420.565 30.664 419.765 33.048 419.765 36.056C419.765 39.032 420.565 41.416 422.165 43.208C423.797 44.968 425.973 45.848 428.693 45.848ZM480.636 53H472.428L458.7 32.216V53H450.492V19.304H458.7L472.428 40.184V19.304H480.636V53ZM494.793 25.88V32.696H505.785V39.032H494.793V46.424H507.225V53H486.585V19.304H507.225V25.88H494.793Z" fill="white"/>
<path fill-rule="evenodd" clip-rule="evenodd" d="M371.379 68.5055C325.271 72.6787 282.344 81.2698 256.992 87.8725L254.946 80.1276C280.686 73.424 324.045 64.7516 370.625 60.5357C417.118 56.3275 467.26 56.5153 506.333 67.8205L504.142 75.5071C466.519 64.6218 417.572 64.3245 371.379 68.5055Z" fill="white"/>
</svg>
