<?xml version="1.0" encoding="iso-8859-1"?>
<!-- Generator: Adobe Illustrator 19.0.0, SVG Export Plug-In . SVG Version: 6.00 Build 0)  -->
<svg version="1.1" id="Capa_1" xmlns="http://www.w3.org/2000/svg" xmlns:xlink="http://www.w3.org/1999/xlink" x="0px" y="0px"
	 viewBox="0 0 512 512" style="enable-background:new 0 0 512 512;" xml:space="preserve">
<path style="fill:#168DE2;" d="M150.357,257.792c-0.051-97.51,78.959-176.589,176.469-176.64
	c97.51-0.051,176.589,78.959,176.64,176.469c0.051,97.51-78.959,176.589-176.469,176.64c-0.026,0-0.06,0-0.085,0
	C229.444,434.253,150.417,355.26,150.357,257.792z M202.325,257.792c0.026,68.83,55.842,124.612,124.672,124.587
	c68.83-0.026,124.612-55.842,124.587-124.672c-0.026-68.83-55.842-124.612-124.672-124.587
	C258.108,133.197,202.359,188.988,202.325,257.792z"/>
<path style="fill:#FB5968;" d="M202.325,257.792c-0.026-68.83,55.757-124.646,124.587-124.672
	c68.83-0.026,124.646,55.757,124.672,124.587c0.026,68.83-55.757,124.646-124.587,124.672c-0.026,0-0.06,0-0.085,0
	C258.142,382.293,202.411,326.562,202.325,257.792z M254.208,257.792c0,40.149,32.555,72.704,72.704,72.704
	s72.704-32.555,72.704-72.704c0-40.149-32.555-72.704-72.704-72.704l0,0C286.78,185.139,254.259,217.66,254.208,257.792z"/>
<path style="fill:#168DE2;" d="M254.208,257.792c-0.051-40.149,32.469-72.738,72.619-72.789
	c40.149-0.051,72.738,32.469,72.789,72.619c0.051,40.149-32.469,72.738-72.619,72.789c-0.026,0-0.06,0-0.085,0
	C286.814,330.351,254.319,297.89,254.208,257.792z M306.176,257.792c0.026,11.477,9.344,20.762,20.821,20.736
	c11.477-0.026,20.762-9.344,20.736-20.821c-0.026-11.477-9.344-20.762-20.821-20.736c-11.469,0.017-20.753,9.318-20.736,20.787
	C306.176,257.766,306.176,257.783,306.176,257.792z"/>
<path style="fill:#FB5968;" d="M306.176,257.792c-0.026-11.477,9.259-20.796,20.736-20.821c11.477-0.026,20.796,9.259,20.821,20.736
	c0.026,11.477-9.259,20.796-20.736,20.821c-0.026,0-0.06,0-0.085,0C315.469,278.502,306.202,269.235,306.176,257.792z"/>
<g>
	<polygon style="fill:#FFDB6F;" points="83.883,213.845 111.104,257.792 36.181,257.792 36.011,258.048 8.619,213.845 	"/>
	<polygon style="fill:#FFDB6F;" points="111.104,258.304 83.883,302.251 8.619,302.251 36.011,258.048 36.181,258.304 	"/>
</g>
<g>
	<path style="fill:#454545;" d="M326.912,442.795c-102.195-0.026-185.028-82.893-185.003-185.088S224.802,72.678,326.997,72.704
		C429.193,72.73,512.026,155.597,512,257.792C511.863,359.945,429.065,442.709,326.912,442.795z M326.912,89.771
		c-92.774,0.026-167.962,75.247-167.936,168.021s75.247,167.962,168.021,167.936c92.74-0.026,167.91-75.196,167.936-167.936
		C494.831,165.043,419.661,89.873,326.912,89.771z"/>
	<path style="fill:#454545;" d="M326.912,390.912c-73.54-0.026-133.146-59.665-133.12-133.205s59.665-133.146,133.205-133.12
		c73.54,0.026,133.146,59.665,133.12,133.205C460.041,331.315,400.435,390.878,326.912,390.912z M326.912,141.653
		c-64.119,0.026-116.079,52.019-116.053,116.139s52.019,116.079,116.139,116.053c64.085-0.026,116.028-51.968,116.053-116.053
		C443,193.673,391.031,141.705,326.912,141.653z"/>
	<path style="fill:#454545;" d="M326.912,338.944c-44.843-0.026-81.178-36.395-81.152-81.237s36.395-81.178,81.237-81.152
		s81.178,36.395,81.152,81.237C408.073,302.609,371.729,338.918,326.912,338.944z M326.912,193.621
		c-35.413,0.026-64.111,28.757-64.085,64.171s28.757,64.111,64.171,64.085c35.388-0.026,64.06-28.698,64.085-64.085
		C391.049,222.37,362.334,193.655,326.912,193.621z"/>
	<path style="fill:#454545;" d="M326.912,287.061c-16.188-0.026-29.295-13.167-29.269-29.355
		c0.026-16.188,13.167-29.295,29.355-29.269c16.188,0.026,29.295,13.167,29.269,29.355c-0.017,16.179-13.141,29.286-29.321,29.269
		C326.938,287.061,326.921,287.061,326.912,287.061z M326.912,245.504c-6.767,0.026-12.228,5.521-12.203,12.288
		c0.026,6.767,5.521,12.228,12.288,12.203c6.733-0.026,12.177-5.47,12.203-12.203c0.017-6.767-5.453-12.271-12.22-12.288
		C326.955,245.504,326.938,245.504,326.912,245.504z"/>
	<path style="fill:#454545;" d="M326.912,266.325H111.445c-4.71,0-8.533-3.823-8.533-8.533c0-4.71,3.823-8.533,8.533-8.533h215.467
		c4.71,0,8.533,3.823,8.533,8.533C335.445,262.502,331.622,266.325,326.912,266.325z"/>
	<path style="fill:#454545;" d="M83.883,310.784H8.619c-4.71,0-8.533-3.823-8.533-8.533c0-1.587,0.444-3.149,1.28-4.497
		l27.392-44.203c1.604-2.569,4.395-4.173,7.424-4.267h74.923c3.174-0.009,6.11,1.69,7.68,4.446c1.545,2.714,1.485,6.059-0.162,8.713
		l-0.162,0.256l-27.307,44.066C89.591,309.274,86.835,310.793,83.883,310.784z M23.953,293.717H79.13l16.964-27.392H40.96
		L23.953,293.717z"/>
	<path style="fill:#454545;" d="M111.445,266.837H36.181c-2.807,0-5.436-1.382-7.023-3.695l-27.793-44.8
		c-2.483-4.002-1.254-9.267,2.756-11.75c1.348-0.836,2.91-1.28,4.497-1.28h75.264c2.961,0,5.709,1.527,7.262,4.045l27.213,43.947
		l-6.929,4.651l6.98-4.582l0.171,0.256c2.586,3.942,1.476,9.233-2.458,11.81C114.731,266.351,113.109,266.837,111.445,266.837z
		 M40.917,249.771h55.185L79.13,222.379H23.945L40.917,249.771z"/>
	<rect x="85.333" y="0" style="fill:#454545;" width="68.267" height="17.067"/>
	<rect x="153.6" y="59.733" style="fill:#454545;" width="68.267" height="17.067"/>
	<rect x="51.2" y="0" style="fill:#454545;" width="17.067" height="17.067"/>
	<rect x="34.133" y="162.133" style="fill:#454545;" width="68.267" height="17.067"/>
	<rect y="162.133" style="fill:#454545;" width="17.067" height="17.067"/>
	<rect x="68.267" y="349.867" style="fill:#454545;" width="51.2" height="17.067"/>
	<rect x="34.133" y="349.867" style="fill:#454545;" width="17.067" height="17.067"/>
	<rect x="170.667" y="426.667" style="fill:#454545;" width="17.067" height="17.067"/>
	<rect x="34.133" y="494.933" style="fill:#454545;" width="68.267" height="17.067"/>
	<rect y="494.933" style="fill:#454545;" width="17.067" height="17.067"/>
</g>
<g>
</g>
<g>
</g>
<g>
</g>
<g>
</g>
<g>
</g>
<g>
</g>
<g>
</g>
<g>
</g>
<g>
</g>
<g>
</g>
<g>
</g>
<g>
</g>
<g>
</g>
<g>
</g>
<g>
</g>
</svg>
