<svg xmlns="http://www.w3.org/2000/svg" width="39.876" height="43.916" viewBox="0 0 39.876 43.916"><defs><style>.a{fill:#32bbff;}.b{fill:#2c9fd9;}.c{fill:#29cc5e;}.d{fill:#d93f21;}.e{fill:#ffd500;}.f{fill:#fa0;}</style></defs><g transform="translate(0 0.001)"><path class="a" d="M76.645,15.075c-5.1-2.853-13.29-7.435-25.99-14.547A3.062,3.062,0,0,0,47.962.177L69.753,21.967Z" transform="translate(-45.868 -0.012)"/><path class="a" d="M25.643,1.93a3.131,3.131,0,0,0-.463.2,3.064,3.064,0,0,0-1.631,2.724V42.589a3.064,3.064,0,0,0,1.631,2.724,3.17,3.17,0,0,0,.463.2L47.433,23.721Z" transform="translate(-23.549 -1.765)"/><path class="a" d="M69.747,255.98,47.956,277.771a3.03,3.03,0,0,0,2.693-.352c12.317-6.9,20.413-11.425,25.573-14.3l.424-.238Z" transform="translate(-45.863 -234.025)"/></g><path class="b" d="M23.549,255.98v18.868a3.064,3.064,0,0,0,1.631,2.724,3.178,3.178,0,0,0,.463.2L47.433,255.98Z" transform="translate(-23.549 -234.024)"/><path class="c" d="M45.717.517A3.072,3.072,0,0,0,42.561.364L64.484,22.287l7.223-7.223C66.606,12.21,58.417,7.628,45.717.517Z" transform="translate(-40.93 0)"/><path class="d" d="M64.484,252.126,42.561,274.049a3.051,3.051,0,0,0,3.156-.153c12.317-6.9,20.413-11.425,25.573-14.3l.424-.238Z" transform="translate(-40.93 -230.5)"/><path class="e" d="M310.955,179.987a3.056,3.056,0,0,0-1.573-2.686s-1.956-1.091-7.95-4.444l-7.13,7.13,7.137,7.137c5.928-3.329,7.943-4.451,7.943-4.451A3.056,3.056,0,0,0,310.955,179.987Z" transform="translate(-271.08 -158.031)"/><path class="f" d="M309.382,258.666a3.056,3.056,0,0,0,1.573-2.686H294.3l7.137,7.137C307.368,259.788,309.382,258.666,309.382,258.666Z" transform="translate(-271.08 -234.024)"/></svg>